<svg width="44" height="44" viewBox="0 0 44 44" fill="none" xmlns="http://www.w3.org/2000/svg">
<g id="Group 31376">
<path id="Fill 1" d="M44 22.0106C44 34.1302 34.1255 44 22 44C9.87452 44 0 34.1302 0 22.0106C0 9.86975 9.87452 0 22 0C34.1255 0 44 9.86975 44 22.0106Z" fill="url(#paint0_linear_1214_361)"/>
<path id="Fill 4" d="M30.8 22.0107C30.8 22.5667 30.625 23.1249 30.275 23.5718C30.2094 23.6595 29.9031 24.0209 29.6625 24.2561L29.5312 24.3845C27.6937 26.3326 23.1219 29.2624 20.8031 30.2012C20.8031 30.2226 19.425 30.7808 18.7687 30.8H18.6812C17.675 30.8 16.7344 30.2461 16.2531 29.348C15.9906 28.854 15.75 27.4212 15.7281 27.4019C15.5312 26.1167 15.4 24.1492 15.4 21.9893C15.4 19.7246 15.5312 17.6695 15.7719 16.4078C15.7719 16.3864 16.0125 15.2316 16.1656 14.8467C16.4062 14.2928 16.8437 13.8202 17.3906 13.5208C17.8281 13.3091 18.2875 13.2 18.7687 13.2C19.2719 13.2235 20.2125 13.5422 20.5844 13.6919C23.0344 14.6328 27.7156 17.7123 29.5094 19.5942C29.8156 19.8936 30.1437 20.2593 30.2312 20.3427C30.6031 20.8131 30.8 21.3905 30.8 22.0107Z" fill="white"/>
</g>
<defs>
<linearGradient id="paint0_linear_1214_361" x1="0" y1="22" x2="44" y2="22" gradientUnits="userSpaceOnUse">
<stop stop-color="#a38ffd"/>
<stop offset="1" stop-color="#9f89ff"/>
</linearGradient>
</defs>
</svg>
